# xmcd
#
# Track frame offsets:
#	150
#	18929
#	37932
#
# Disc length: 746 seconds
#
# Revision: 0
# Processed by: cddbd v1.5.2PL0 Copyright (c) Steve Scherf et al.
# Submitted via: audiograbber 1.83.01
#
DISCID=1502e803
DTITLE=Shania Twain - Forever And For Always
DYEAR=2002
DGENRE=Country
TTITLE0=Shania Twain - Forever And For Always
TTITLE1=Shania Twain - Man! I Feel Like A Woman
TTITLE2=Shania Twain - Don´t Be Stupid
EXTD=
EXTT0=
EXTT1=
EXTT2=
PLAYORDER=
